<svg width="35" height="35" viewBox="0 0 35 35" fill="none" xmlns="http://www.w3.org/2000/svg">
<circle cx="17.5" cy="17.5" r="17.5" fill="#0093DD"/>
<path d="M19.8578 13.7502C19.9242 13.6838 20.0239 13.6174 20.1235 13.6174C20.2231 13.6174 20.3227 13.6838 20.4223 13.7502L24.2739 17.6018C24.3403 17.6682 24.4067 17.7678 24.4067 17.8674C24.4067 18.0002 24.3403 18.0667 24.2739 18.1331L20.4223 21.9846C20.3227 22.0842 20.2231 22.1174 20.1235 22.1174C20.0239 22.1174 19.9242 22.0842 19.8578 21.9846L19.6254 21.7522C19.5258 21.6858 19.4926 21.6194 19.4926 21.4866C19.4926 21.387 19.5258 21.2874 19.6254 21.1877L22.4145 18.4319H9.9301C9.79729 18.4319 9.69768 18.3987 9.63127 18.3323C9.56487 18.2659 9.53166 18.1663 9.53166 18.0334V17.7014C9.53166 17.6018 9.56487 17.5022 9.63127 17.4358C9.69768 17.3694 9.79729 17.303 9.9301 17.303H22.4145L19.6254 14.5471C19.5258 14.4807 19.4926 14.3811 19.4926 14.2483C19.4926 14.1487 19.5258 14.0491 19.6254 13.9827L19.8578 13.7502Z" fill="white"/>
</svg>
