<svg width="20" height="20" viewBox="0 0 20 20" fill="none" xmlns="http://www.w3.org/2000/svg">
<path d="M0.720703 0.125H19.9707V19.375H0.720703V0.125ZM16.7051 4.67969V4.46484H13.1387L10.6035 10.8242L7.68164 4.46484H3.94336V4.67969L5.14648 6.14062C5.27539 6.26953 5.31836 6.39844 5.31836 6.57031V12.2852C5.31836 12.5 5.27539 12.6719 5.14648 12.8438L3.77148 14.4766V14.6914H7.63867V14.4766L6.26367 12.8438C6.0918 12.6719 6.04883 12.5 6.0918 12.2852V7.34375L9.48633 14.6914H9.87305L12.752 7.34375V13.2305C12.752 13.3594 12.709 13.4453 12.666 13.4883L11.6348 14.5195V14.7344H16.7051V14.5195L15.6738 13.5312C15.5879 13.4453 15.5449 13.3594 15.5449 13.2305V5.96875C15.5449 5.88281 15.5879 5.75391 15.6738 5.66797L16.7051 4.67969Z" fill="#0093DD"/>
</svg>
