<svg width="25" height="18" viewBox="0 0 25 18" fill="none" xmlns="http://www.w3.org/2000/svg">
<path d="M24.3379 3.44531C24.5176 4.25391 24.6973 5.51172 24.7871 7.12891L24.832 9.375L24.7871 11.6211C24.6973 13.3281 24.5176 14.541 24.3379 15.3496C24.1582 15.8887 23.8887 16.3379 23.5293 16.6973C23.125 17.1016 22.6758 17.3711 22.1367 17.5059C21.3281 17.7305 19.5312 17.8652 16.6562 17.9551L12.5684 18L8.48047 17.9551C5.60547 17.8652 3.76367 17.7305 3 17.5059C2.46094 17.3711 1.9668 17.1016 1.60742 16.6973C1.20312 16.3379 0.933594 15.8887 0.798828 15.3496C0.574219 14.541 0.439453 13.3281 0.349609 11.6211L0.304688 9.375C0.304688 8.74609 0.304688 7.98242 0.349609 7.12891C0.439453 5.51172 0.574219 4.25391 0.798828 3.44531C0.933594 2.90625 1.20312 2.45703 1.60742 2.05273C1.9668 1.69336 2.46094 1.42383 3 1.24414C3.76367 1.06445 5.60547 0.884766 8.48047 0.794922L12.5684 0.75L16.6562 0.794922C19.5312 0.884766 21.3281 1.06445 22.1367 1.24414C22.6758 1.42383 23.125 1.69336 23.5293 2.05273C23.8887 2.45703 24.1582 2.90625 24.3379 3.44531ZM10.0527 13.0586L16.4766 9.375L10.0527 5.73633V13.0586Z" fill="white"/>
</svg>
